<svg xmlns="http://www.w3.org/2000/svg" xmlns:xlink="http://www.w3.org/1999/xlink" width="223" height="223" viewBox="0 0 223 223">
  <defs>
    <rect id="rect-2" width="183" height="73" x="20" y="75"/>
    <mask id="mask-3" maskContentUnits="userSpaceOnUse" maskUnits="userSpaceOnUse">
      <rect width="223" height="223" x="0" y="0" fill="black"/>
      <use fill="white" xlink:href="#rect-2"/>
    </mask>
  </defs>
  <g>
    <path fill="rgb(255,255,255)" fill-rule="evenodd" d="M111.5 0C173.03852523 0 223 49.96147477 223 111.5S173.03852523 223 111.5 223 0 173.03852523 0 111.5 49.96147477 0 111.5 0z"/>
    <g>
      <use fill="none" xlink:href="#rect-2"/>
      <g mask="url(#mask-3)">
        <path fill="rgb(28,42,62)" fill-rule="evenodd" d="M48.97856358 75.3260211c4.4977913.92369878 9.12406431 4.05996864 11.75848825 7.9266189.47117723.70886731 3.74814278 7.04584651 7.28210503 14.07024645 12.165408 24.23089964 19.83305795 39.20336504 21.03247561 41.02928276 3.66247722 5.62807863 8.97414126 8.65696602 15.22819301 8.67844584 3.85521644.02147982 6.91800145-.83777948 9.8522715-2.7710963 4.41209247-2.8784954 7.19643946-7.43251652 7.90323856-12.88878984l.17133113-1.50368717.0428494 1.28888896c.08569882 3.75923453 1.97047425 7.43251653 5.63291823 10.97695286 2.76297215 2.66366395 5.67576763 4.29623003 9.4881679 5.26288843l2.35595267.60150147-29.02131326-.04295964-29.02141298-.04295964-2.05613981-.58002165c-4.47631673-1.22441624-7.64620863-3.47996361-10.21637508-7.3036376-1.17797634-1.71848536-7.88179725-14.9724654-17.43422263-34.41303265-5.0546341-10.24657246-9.80945533-19.71983815-10.60192-21.05167013-2.74149758-4.59701401-5.8042826-7.00292012-11.2016122-8.74290193l-2.46305956-.79480322 9.80945533-.02147982c8.16023527-.02147982 10.0878601.04295964 11.4586089.32221393zm85.82183893.15037538c4.45497512 1.33183197 8.99554933 4.74735613 11.56574903 8.69992566.49258532.79480322 5.46155384 10.71917838 11.03021458 22.06128818 13.49334063 27.49606505 14.86412266 30.22420171 16.14920589 32.22195799 3.25549098 5.0051306 6.72522899 7.53994887 12.1225586 8.91472386l2.4630928.62298129h-9.5310173c-5.56866074.02147982-10.32344873-.08591928-11.45864215-.21483145-2.42021016-.27927091-5.35451344-1.24589607-7.26069696-2.38442629-1.99184908-1.1814566-4.41205923-3.52292326-5.82565743-5.67103827-.64257486-.96669166-3.10566766-5.6925846-5.44021225-10.48288374l-4.28357751-8.72140548h-22.27470943v-2.36294647h10.4948131c5.78287452 0 10.49477986-.08591928 10.49477986-.17183856 0-.32223056-15.93495887-31.21233995-17.02726964-33.01677784-1.39215687-2.298507-4.3906844-5.26292169-6.6609715-6.59477029-.94242096-.55850857-2.63445718-1.33183197-3.74817603-1.71850199-1.90618352-.66590767-2.16321346-.6873875-5.11889158-.6873875-2.29172843 0-3.46970476.08591929-4.4977913.36517358-2.09895596.5799884-5.50443648 2.3199702-7.08936581 3.6518188-3.42685536 2.85701558-6.08268738 7.9695619-6.21120235 11.9651077l-.0428494.96662516-.19273922-1.1814566c-.62113353-3.67331526-1.52067185-6.01474865-3.25555747-8.4636144-1.07086945-1.50370379-3.42685536-3.82369062-4.84045356-4.79034902-2.24887902-1.52516698-5.71858378-2.8784954-8.46008137-3.2651488-.7496485-.10741572 10.88032477-.17185518 28.1646576-.15037536 27.54352405.02147982 29.53537314.04295964 30.7347908.40814984zm38.55243028.7733234c7.41058677 1.50370378 9.23113796 1.50370378 16.64172473 0 4.8833362-.98813823 7.98890413-1.26739252 9.48820114-.83776287.89953831.25777447 3.10556793 1.93331682 3.10556793 2.36294647 0 .08591928-.70676586-.21481482-1.54207993-.64444448-2.52731704-1.3318486-3.10560117-1.31036878-8.52430561.0859359-5.8899814 1.50368717-7.83901433 1.84738092-10.81610053 1.84738092-2.87001256 0-4.4977913-.27925429-10.60192-1.84738091-3.8124335-.98815485-4.81904547-1.18148986-5.7828745-1.07407413-1.64918682.15035874-2.89142065.64444448-4.21932003 1.65406252-1.28508323.96665841-1.4135982.85924268-.51405989-.38665339.64254162-.88073912 1.71347755-1.67555897 2.76290567-2.01925272 1.26370839-.40814983 5.56869398-.04297626 10.00226102.85924269zM42.85296031 82.28596497c-.53543472-.7733234-1.75626046-2.19109129-2.69864818-3.17922951l-1.7134443-1.76147826h3.96232333c4.36927632 0 5.71861703.21481483 8.4815227 1.26740914 2.89145387 1.13849697 5.46162032 2.98591113 7.47487749 5.39180061.96382904 1.1599768 2.46305956 3.99551255 8.54578018 16.21839472 10.66617748 21.45980334 18.78359658 37.27004823 20.41134208 39.7403938.79246466 1.2244495 2.18465478 2.92145504 3.21270806 3.9525529l1.79910987 1.8044379-4.347835-.12887892c-4.8404868-.12891217-6.89659336-.45110947-9.33824484-1.48220734-2.89142064-1.18148986-5.65435955-3.39407759-7.28213828-5.77847062-.3641036-.51554894-6.70382091-13.03918184-14.09303284-27.79681579-7.41062001-14.77914702-13.8788523-27.47458523-14.41432027-28.24790863zm49.53986196 1.80443789c-1.09231077-2.2125711-3.12700926-4.7903324-4.69056375-5.92884599l-.83528083-.60146821h5.65435955l5.6543263.02147982-.64250837.45110947c-1.71347754 1.22443287-3.8338416 3.8451538-4.92615237 6.0577249-.06425748.1718552-.14992305.1718552-.21418053 0zm109.72432708.70885069c-2.95567812 2.89997522-7.45346941 2.34146665-9.63809095-1.1814566-.23558862-.38667002-.62110029-1.26739252-.83528083-1.93331682l-.40695299-1.22443288.08569881 1.3533118c.21418054 3.20072595 2.35595267 5.45627332 5.56866074 5.77847062 2.07754789.21483145 4.11224637-.66590767 5.4830284-2.4059061.94235448-1.18147324.79243143-1.41776789-.25706318-.38667002zm-33.96894019 2.23406755c2.09895597-1.00961805 3.31978172-2.81403932 3.53396225-5.1984656.06429073-.70888395.08569881-1.26739252.02147457-1.26739252-.04288265 0-.25706319.55850857-.47124372 1.2459127-.47117724 1.58960643-1.6705949 3.1792295-2.99849429 4.01700899-.85672215.51554893-1.32789939.64442785-2.61301585.70886731-1.3278994.08595253-1.73485239 0-2.80572183-.4725893-.68539102-.3221973-1.60637066-.9236655-2.03473173-1.37480823-1.09231077-1.05257769-1.02802004-.55850858.06429073.68742074 1.32789939 1.52516699 2.72002302 2.14811502 4.69049726 2.14811502 1.22082574 0 1.84195927-.12887892 2.61298261-.49406911zm-6.25398527-4.0384722c.6639497.81629967 1.64918682 1.22443288 2.99849429 1.22443288 1.39219011 0 2.27035359-.38665339 3.27696555-1.41776788l.81387274-.83776286-.23558861.6873875c-.29981287.85927593-1.47782244 2.01925271-2.39883532 2.34146664-2.31313651.8592593-4.77616283-.47257267-5.39729636-2.92145504-.12851497-.49406911-.1071069-.49406911.12848173-.12889555.14995629.21481483.51405988.68740412.81390598 1.05259432zm30.41353662 21.30941135c0 9.1510684-.04281616 16.64802438-.0856988 16.64802438-.04281617 0-.29981287-.8592593-.53543473-1.911837-.42836108-1.80443789-.44976916-2.49182538-.44976916-14.6072752 0-12.65247858 0-12.71691804-.42836107-12.48064002-.42839432.2147982-.42839432.45110948-.42839432 10.69768194 0 6.16514064-.08563232 10.332525-.19270597 10.13917337-.1071069-.17183856-.59972545-1.37480824-1.07090269-2.66366395l-.87816347-2.34146665v-8.03401799c0-7.96954528 0-8.03398474-.42836108-7.79770672-.406953.2147982-.42836107.45110948-.42836107 7.04584651v6.80960175l-.77102335-1.18148986c-.42839431-.64442786-.89957155-1.3318486-1.07093593-1.52516698-.23558862-.25775785-.29981286-1.41776789-.29981286-5.8643899 0-5.45624008 0-5.52067954-.42836107-5.28440152-.406953.2147982-.42836108.45110948-.42836108 4.7903324v4.5325413l-2.99856077-2.96441468v-6.61625011l-.79243142.150392c-.44976916.08591927-.87816347.19331837-.96382904.23627801-.1071069.06443946-.17133113 1.11701715-.17133113 2.36294647 0 1.22441625-.0428494 2.23406755-.10707365 2.23406755-.06429073 0-.4926518-.2577911-.96382904-.55850858l-.85672215-.58002164V91.6732615l-.6639497.150392c-.36410359.06443945-.81387274.12887891-.96382904.12887891-.21418054 0-.29981286.32223055-.29981286 1.18145661 0 .6444611-.06429073 1.18148986-.12854821 1.18148986-.08563233 0-.5139934-.1073991-.96376256-.2577911-.81393923-.23627801-.83534731-.25775783-.83534731-1.31033552 0-.88073913-.06425749-1.03109787-.34266227-.92369877-.19277245.06443946-.42836107.12887892-.53546796.12887892-.10707365 0-.19277246.34371038-.19277246.75182696 0 .81629966-.04281616.8592593-.6639497.537062-.2569967-.15039199-.4068865-.45110947-.4068865-.88073912 0-.51554894-.08569881-.64442786-.342762-.53702876-.19270597.06443946-.42829459.12887892-.53540148.12887892-.10707364 0-.19277245.19331838-.19277245.45110948 0 .32223055-.08566557.40814983-.34266227.32223055-.19277246-.06447271-.42836107-.12891217-.53546796-.12891217-.10707365 0-.19277246-.34367713-.19277246-.75182696v-.7518602h10.92320742c10.88032477 0 10.92314093 0 10.92314093-.45110948 0-1.3318486-5.3973296-2.298507-15.63511276-2.74961648-3.04137693-.12887892-1.8205512-.17183856 6.48964037-.19331838l10.21637508-.04295964v16.64799112zm-153.9953744 26.8946301c0 .34371037.19277245 1.37480823.40695299 2.31998682 1.86336735 7.64734798 7.26069695 12.65247858 15.1853436 14.07024646l2.29172843.38667H20l2.29172843-.38667c4.3906844-.7947866 7.41062-2.31995358 10.34489005-5.2629217 2.84860447-2.85701557 4.4335338-6.01474864 5.0974835-10.09621372.23558862-1.58960644.57828412-2.16959483.57828412-1.03109787zm-.68535778 8.69992566c-.72820718 1.52516698-2.61301586 3.8881467-3.83380835 4.83329203-.68539102.537062-1.26367515 1.03113112-1.26367515 1.05261094 0 .04295964 2.52731705.06443946 5.63295146.06443946h5.6114769l-.8566889-.68742074c-1.43503953-1.11701715-2.76293891-2.64218413-3.74817604-4.3177431-.53543472-.90221895-1.02805328-1.63256609-1.09231076-1.63256609-.06425749 0-.2569967.32223056-.44976916.6873875z"/>
      </g>
    </g>
  </g>
</svg>
